Coordinates
version=1
nRows=24
nColumns=22
inDegrees=yes

Units are S.I. units (second, meters, Newtons, ...)
If the header above contains a line with 'inDegrees', this indicates whether rotational values are in degrees (yes) or radians (no).

endheader
time	pelvis_tilt	pelvis_list	pelvis_rotation	pelvis_tx	pelvis_ty	pelvis_tz	hip_flexion_r	hip_adduction_r	hip_rotation_r	knee_angle_r	ankle_angle_r	subtalar_angle_r	hip_flexion_l	hip_adduction_l	hip_rotation_l	knee_angle_l	ankle_angle_l	subtalar_angle_l	lumbar_extension	lumbar_bending	lumbar_rotation
      0.01000000	      6.38630277	     -3.25913710	      4.14795423	      1.12926229	      0.94680349	     -0.09977375	     -7.20928730	      5.21365308	     -9.28125678	     -6.76092275	      9.67452569	     -3.19258083	     -3.20356007	     -4.62770842	    -13.25584361	    -16.55434394	     24.33564311	     12.99838971	    -13.69178340	      3.64264195	     -8.01823665
      0.02000000	      6.31838710	     -3.21158352	      4.36042420	      1.12916221	      0.94657721	     -0.10126809	     -7.12186125	      5.08322221	     -9.61294512	     -6.81080048	      9.73729918	     -3.09141472	     -3.74403534	     -3.83901678	    -10.18419443	    -15.08332491	     20.34141759	     -7.41270480	    -13.59686859	      3.78806288	     -8.24937838
      0.03000000	      6.31968488	     -3.21290342	      4.36229216	      1.12915953	      0.94657607	     -0.10125408	     -7.12248994	      5.08692572	     -9.61234550	     -6.81455852	      9.73776003	     -3.09082629	     -3.74408454	     -3.84181091	    -10.18366867	    -15.08421976	     20.34156327	     -7.41279230	    -13.59433254	      3.78154614	     -8.25130831
      0.04000000	      6.32163791	     -3.21493661	      4.36461342	      1.12914092	      0.94657536	     -0.10123801	     -7.12129711	      5.09120084	     -9.61115853	     -6.82096150	      9.73792200	     -3.09016286	     -3.74312906	     -3.84579255	    -10.18263172	    -15.08574601	     20.34207654	     -7.41282885	    -13.59524405	      3.77381562	     -8.25595190
      0.05000000	      6.32880188	     -3.21766033	      4.36915395	      1.12907595	      0.94657928	     -0.10123794	     -7.11083623	      5.09297084	     -9.60675850	     -6.85118328	      9.73837904	     -3.08747326	     -3.73773546	     -3.85104028	    -10.17702228	    -15.10164009	     20.34571701	     -7.41252200	    -13.61111773	      3.77281599	     -8.27730860
      0.06000000	      6.33019322	     -3.22035055	      4.36844900	      1.12903404	      0.94657825	     -0.10122050	     -7.10712210	      5.09718275	     -9.60773135	     -6.85460332	      9.73908443	     -3.08691480	     -3.73492120	     -3.85435730	    -10.17602451	    -15.10336420	     20.34660217	     -7.41261349	    -13.61681894	      3.76539150	     -8.28024337
      0.07000000	      6.34001033	     -3.22262801	      4.37040548	      1.12894690	      0.94658193	     -0.10122051	     -7.09430802	      5.09764422	     -9.60430559	     -6.88788146	      9.74296699	     -3.08466405	     -3.72709490	     -3.85889901	    -10.17111960	    -15.12807164	     20.35178782	     -7.41340255	    -13.64051246	      3.76308817	     -8.29278609
      0.08000000	      6.34091460	     -3.22524442	      4.36748579	      1.12889255	      0.94657936	     -0.10120767	     -7.08828368	      5.10024706	     -9.60536376	     -6.88810974	      9.74444373	     -3.08432467	     -3.72366918	     -3.86156243	    -10.17081237	    -15.12911958	     20.35279011	     -7.41374119	    -13.64911422	      3.75689898	     -8.29480861
      0.09000000	      6.35030966	     -3.22602594	      4.36542561	      1.12880227	      0.94658451	     -0.10120075	     -7.07539703	      5.09893171	     -9.59836603	     -6.91797492	      9.75255255	     -3.08335402	     -3.71519672	     -3.86433400	    -10.16852346	    -15.15535443	     20.35806753	     -7.41676157	    -13.67439020	      3.75152945	     -8.29918853
      0.10000000	      6.35047606	     -3.22822991	      4.36173985	      1.12875844	      0.94658093	     -0.10119146	     -7.06979310	      5.10099332	     -9.59920402	     -6.91675210	      9.75420292	     -3.08326766	     -3.71259525	     -3.86587910	    -10.16873633	    -15.15580277	     20.35883197	     -7.41737957	    -13.68179611	      3.74663853	     -8.30015022
      0.11000000	      6.35153873	     -3.23002070	      4.35749497	      1.12871324	      0.94657939	     -0.10117647	     -7.06418147	      5.10288275	     -9.59806406	     -6.91970585	      9.75636510	     -3.08328379	     -3.70900413	     -3.86801324	    -10.16812255	    -15.15921034	     20.35975619	     -7.41847582	    -13.69173225	      3.74003312	     -8.30086152
      0.12000000	      6.35873648	     -3.22816508	      4.35273551	      1.12865062	      0.94658331	     -0.10117093	     -7.05424594	      5.09843844	     -9.58687609	     -6.94572250	      9.76617363	     -3.08399635	     -3.70212262	     -3.86712098	    -10.16887955	    -15.18314468	     20.36326028	     -7.42452856	    -13.71174084	      3.73258127	     -8.29628604
      0.13000000	      6.35787910	     -3.22980986	      4.34896988	      1.12862681	      0.94657980	     -0.10115985	     -7.05099175	      5.10034531	     -9.58759291	     -6.94436523	      9.76783689	     -3.08407981	     -3.69995063	     -3.86839995	    -10.16982716	    -15.18258650	     20.36370327	     -7.42543906	    -13.71646842	      3.72749600	     -8.29668114
      0.14000000	      6.35739306	     -3.23081468	      4.34538237	      1.12860550	      0.94657703	     -0.10114585	     -7.04809341	      5.10158314	     -9.58709299	     -6.94472659	      9.76968835	     -3.08417466	     -3.69773805	     -3.86973824	    -10.17070133	    -15.18360101	     20.36407138	     -7.42653584	    -13.72172479	      3.72115404	     -8.29677329
      0.15000000	      6.35714368	     -3.23124011	      4.34145491	      1.12858370	      0.94657448	     -0.10112898	     -7.04527680	      5.10209694	     -9.58551713	     -6.94607322	      9.77190169	     -3.08418796	     -3.69526347	     -3.87052056	    -10.17180830	    -15.18581154	     20.36439464	     -7.42778460	    -13.72802946	      3.71387513	     -8.29679886
      0.16000000	      6.35703559	     -3.23209224	      4.34122681	      1.12858187	      0.94657276	     -0.10113804	     -7.04532807	      5.10172257	     -9.58536566	     -6.94623544	      9.77205576	     -3.08417919	     -3.69503052	     -3.87043276	    -10.17190045	    -15.18594173	     20.36441153	     -7.42785921	    -13.72846014	      3.71317222	     -8.29682990
      0.17000000	      6.35627260	     -3.23225776	      4.33545572	      1.12855427	      0.94657008	     -0.10110212	     -7.04165212	      5.10287268	     -9.58313878	     -6.94621701	      9.77477171	     -3.08378836	     -3.69196970	     -3.87204785	    -10.17283488	    -15.18780377	     20.36480451	     -7.42893074	    -13.73768483	      3.70265694	     -8.29813712
      0.18000000	      6.36153728	     -3.21869206	      4.32474002	      1.12851746	      0.94657402	     -0.10108159	     -7.03907141	      5.08556026	     -9.55587993	     -6.96157467	      9.79846993	     -3.07962048	     -3.68851764	     -3.85945331	    -10.18969147	    -15.20740989	     20.36697781	     -7.43818701	    -13.75479366	      3.68125580	     -8.29402755
      0.19000000	      6.36007264	     -3.22040064	      4.32114922	      1.12850446	      0.94657073	     -0.10106131	     -7.03701183	      5.08765474	     -9.55594633	     -6.95937461	      9.80044317	     -3.07916493	     -3.68772385	     -3.86166544	    -10.19072147	    -15.20491579	     20.36694619	     -7.43904030	    -13.75823729	      3.67629017	     -8.29450679
      0.20000000	      6.35923723	     -3.22138214	      4.31835844	      1.12849476	      0.94656876	     -0.10104483	     -7.03580105	      5.08870476	     -9.55451384	     -6.95863878	      9.80256662	     -3.07853338	     -3.68720677	     -3.86299055	    -10.19184665	    -15.20334230	     20.36688512	     -7.44003759	    -13.76102511	      3.67276438	     -8.29501376
      0.21000000	      6.35906751	     -3.22150094	      4.31834682	      1.12849076	      0.94656799	     -0.10104345	     -7.03590881	      5.08867993	     -9.55449852	     -6.95869026	      9.80258164	     -3.07852731	     -3.68723500	     -3.86296279	    -10.19185939	    -15.20334973	     20.36688302	     -7.44004659	    -13.76105848	      3.67272405	     -8.29502434
      0.22000000	      6.35773647	     -3.22314522	      4.31333402	      1.12847200	      0.94656760	     -0.10101806	     -7.03382193	      5.09108503	     -9.55225464	     -6.95874893	      9.80409367	     -3.07770001	     -3.68557471	     -3.86511997	    -10.19266178	    -15.20179392	     20.36651287	     -7.44123982	    -13.76707371	      3.66807324	     -8.29744690
      0.23000000	      6.35725565	     -3.22336477	      4.31272400	      1.12846983	      0.94656617	     -0.10101477	     -7.03454769	      5.09134778	     -9.55181231	     -6.95943525	      9.80421824	     -3.07757720	     -3.68494516	     -3.86504767	    -10.19284892	    -15.20151595	     20.36642239	     -7.44143251	    -13.76765290	      3.66798266	     -8.29779249
      0.24000000	      6.35636584	     -3.22500798	      4.30612977	      1.12844589	      0.94656917	     -0.10099445	     -7.03131405	      5.09323871	     -9.54769744	     -6.96066405	      9.80497904	     -3.07645873	     -3.68366399	     -3.86652552	    -10.19452301	    -15.20082872	     20.36535031	     -7.44331055	    -13.77470892	      3.66736149	     -8.30310606
